<svg xmlns="http://www.w3.org/2000/svg" viewBox="0 0 169.26 164.59"><defs><style>.cls-1{fill:#231f20;}.cls-2{fill:none;stroke:#070404;}</style></defs><g id="Layer_15" data-name="Layer 15"><g id="Layer_3" data-name="Layer 3"><path class="cls-1" d="M253,391.8q-.34-2.3-.81-4.83c0,.69.11.16.35-1.61s.53-4.79.92-9.08a11.73,11.73,0,0,0,1.32-2.25l.75-1.78a19,19,0,0,1-1.56-2.13,3,3,0,0,1-.51-1.44q.92-7,1.72-13.34a7.14,7.14,0,0,1,2-3.91,34.94,34.94,0,0,1,5.24-4.71,39.89,39.89,0,0,1,5.17-3.68,36.27,36.27,0,0,1,4.83-2.42c2.07-.69,3.3-1.26,3.68-1.72a1.66,1.66,0,0,1,1.27-.69,3.05,3.05,0,0,1,2.82,1.84,12.15,12.15,0,0,1,1,5.52,21.27,21.27,0,0,1-1,5.4,21.16,21.16,0,0,0-1,5.06c0,.46.06,2.23.17,5.29s.29,7.48.52,13.23a62.7,62.7,0,0,0,1.78,13.23,150.72,150.72,0,0,0,4.32,14.6q3.57,9.9,7.71,14.79t9.1,4.88q3.92,0,10.35-5.06a115.94,115.94,0,0,0,15.19-15.18Q335,394,340.29,387.2a110.36,110.36,0,0,0,8.46-12.42,45.85,45.85,0,0,1,7-9.09,56.22,56.22,0,0,1,9.21-7.36l2.65-1.49a3.65,3.65,0,0,1,1.61-.58q2,0,3.12,3.11a29.68,29.68,0,0,1,1.08,9.2q-.69,5.64-1.15,11.16-1,8.63-3,17.94T364,417q-1.61,5.07-2.76,8.86a55.81,55.81,0,0,0-1.6,6.44c-.16,1-.37,2.24-.64,3.74s-.55,3.24-.86,5.23c-.76,1.92-1.61,3.84-2.52,5.75a25.2,25.2,0,0,0-1.9,5.52q-.75,3.23-1.32,7.48c0,.54,0,1.23-.11,2.07s-.16,1.72-.23,2.64q-2.65,11.75-5.4,22.78a12.35,12.35,0,0,1-1,2.64,11,11,0,0,0-3.38,2,24.48,24.48,0,0,0-4,4.14,30.06,30.06,0,0,1-3.44,3.39,4.07,4.07,0,0,1-2.07,1.09,2,2,0,0,1-1.49-.57,2.69,2.69,0,0,1-.58-2,5.54,5.54,0,0,1,.35-1.49,54.2,54.2,0,0,0,2.81-11.27q1.22-7.37,2.25-18.18.11-2.29,1.84-12.42T343,426.77c.3-1.92.71-4.28,1.2-7.07s1.14-6,1.9-9.61q.81-2.76,1.32-4.77a13.09,13.09,0,0,0,.52-2.94,2.7,2.7,0,0,0-.4-1.66,1.43,1.43,0,0,0-1.21-.52c-.46,0-1.3.59-2.53,1.78a51.88,51.88,0,0,0-4.61,5.35c-1.07,1.3-2.17,2.68-3.28,4.14s-2.28,2.88-3.51,4.26c-2.07,2.14-4,4.18-5.75,6.09l-8.52,8.51c-.77.46-1.71,1-2.82,1.73s-2.44,1.49-4,2.41a17.56,17.56,0,0,1-7,5.93,19.33,19.33,0,0,1-8.81,2.47,16,16,0,0,1-9.26-3.05,33.27,33.27,0,0,1-8.57-9.37q-1.85-3.1-3.63-6.21T270.26,418l-.58.11q-.57.69-2.12,9.32t-4,25.3q-2.65,17.14-4,26.92a119.81,119.81,0,0,0-1.38,12.65,14,14,0,0,1-1.44,6,4.79,4.79,0,0,1-3.73,2.47,31.11,31.11,0,0,0-3.57.63q-2.3.52-5.52,1.32a2.85,2.85,0,0,1-1-.4,1,1,0,0,1-.46-.86l.69-4.26L242,492.9q.69-3.56,1.38-6.9.47-6.9.81-13a32.41,32.41,0,0,1,.86-4.26,20.36,20.36,0,0,0,.75-4.49,12.1,12.1,0,0,0-.35-2.36,11.65,11.65,0,0,1-.34-2.35,128.3,128.3,0,0,1,2-18.75,128.53,128.53,0,0,0,2-18.86c-.23-1.77-.49-3.53-.8-5.29q.57-4.14,1.84-10.35T253,391.8Z" transform="translate(-212.87 -338.21)"/></g></g><g id="Layer_12" data-name="Layer 12"><circle class="cls-1" cx="66.96" cy="132.8" r="2.94"/></g><g id="Layer_11" data-name="Layer 11"><circle class="cls-1" cx="101.15" cy="133.8" r="2.94"/></g><g id="Layer_10" data-name="Layer 10"><line class="cls-2" x1="65.34" y1="140.77" x2="0.08" y2="130.71"/></g><g id="Layer_9" data-name="Layer 9"><line class="cls-2" x1="103.74" y1="143.21" x2="169.19" y2="134.41"/></g><g id="Layer_8" data-name="Layer 8"><line class="cls-2" x1="64.84" y1="145.85" x2="16.26" y2="145.36"/></g><g id="Layer_7" data-name="Layer 7"><line class="cls-2" x1="103.91" y1="146.83" x2="152.44" y2="149.3"/></g><g id="Layer_6" data-name="Layer 6"><path class="cls-1" d="M306.25,486.93a5.3,5.3,0,0,1-.85,1.66,4.14,4.14,0,0,1-1.31,1.1,3.53,3.53,0,0,1-1.63.39q-3.79,0-3.79-4.94v-4.26a3.81,3.81,0,0,1-.78.08,3.65,3.65,0,0,1-1.18-.2v4a6.39,6.39,0,0,1-.33,2.08,5.21,5.21,0,0,1-.91,1.68.34.34,0,0,1-.08.09,3.42,3.42,0,0,1-.47.61l-.12.11a3.05,3.05,0,0,1-.49.38l-.2.12a3.57,3.57,0,0,1-.57.23l-.24.08-.19,0-.2,0a4.46,4.46,0,0,1-.54.06h-.24a3.5,3.5,0,0,1-2.22-.73,3.61,3.61,0,0,1-1.7-3,5.65,5.65,0,0,1-1.27.35q.57,4.85,5.08,4.85a5.32,5.32,0,0,0,3-.87,6.29,6.29,0,0,0,2.16-2.55,4.58,4.58,0,0,0,.64,1.38,4.48,4.48,0,0,0,1,1.08,4.66,4.66,0,0,0,1.32.71,4.72,4.72,0,0,0,1.56.25,5.25,5.25,0,0,0,4.83-2.91h.07V489a6.83,6.83,0,0,1,.55-1.2c0-.09.05-.2.1-.29s0-.19.08-.28A5.11,5.11,0,0,1,306.25,486.93Z" transform="translate(-212.87 -338.21)"/></g><g id="Layer_5" data-name="Layer 5"><path d="M293,479.74c-.08.61.29,1.19,1.06,2.05,1.1,1.22,2.53,2.07,3.68,3.23l3.88-3.88a2.28,2.28,0,0,0,.79-1.4Z" transform="translate(-212.87 -338.21)"/></g></svg>